PathFileType	4	(X/Y/Z)	G:\Shared drives\HPL_Drive\Nord Sprinting Study\Kristen_Nord_test\Trimmed_Nord000003.trc
DataRate	CameraRate	NumFrames	NumMarkers	Units	OrigDataRate	OrigDataStartFrame	OrigNumFrames
200.00	200.00	      4	52	mm	200.00	1394	      1592
Frame#	Time	C7			R_Shoulder			L_Shoulder			Sternum			R_humerus			R_elbow_med			R_elbow_lat			R_forearm			R_wrist_radius			R_wrist_ulna			L_humerus			L_elbow_med			L_elbow_lat			L_forearm			L_wrist_radius			L_wrist_ulna			r.ASIS			r.PSIS			r_IC			L.ASIS			L.PSIS			l_IC			r_thigh1			r_thigh2			r_thigh3			r_thigh4			r_thigh5			r_knee			r_mknee			r_shank_antsup			r_sh2			r_sh3			r_sh4			r_ankle			r_mankle			r_calc			r_5meta			r_toe			L_thigh1			L_thigh2			L_thigh3			L_thigh4			L_knee			L_mknee			L_shank_antsup			L_sh2			L_sh3			L_ankle			L_mankle			L_calc			L_5meta			L_toe			
		X1	Y1	Z1	X2	Y2	Z2	X3	Y3	Z3	X4	Y4	Z4	X5	Y5	Z5	X6	Y6	Z6	X7	Y7	Z7	X8	Y8	Z8	X9	Y9	Z9	X10	Y10	Z10	X11	Y11	Z11	X12	Y12	Z12	X13	Y13	Z13	X14	Y14	Z14	X15	Y15	Z15	X16	Y16	Z16	X17	Y17	Z17	X18	Y18	Z18	X19	Y19	Z19	X20	Y20	Z20	X21	Y21	Z21	X22	Y22	Z22	X23	Y23	Z23	X24	Y24	Z24	X25	Y25	Z25	X26	Y26	Z26	X27	Y27	Z27	X28	Y28	Z28	X29	Y29	Z29	X30	Y30	Z30	X31	Y31	Z31	X32	Y32	Z32	X33	Y33	Z33	X34	Y34	Z34	X35	Y35	Z35	X36	Y36	Z36	X37	Y37	Z37	X38	Y38	Z38	X39	Y39	Z39	X40	Y40	Z40	X41	Y41	Z41	X42	Y42	Z42	X43	Y43	Z43	X44	Y44	Z44	X45	Y45	Z45	X46	Y46	Z46	X47	Y47	Z47	X48	Y48	Z48	X49	Y49	Z49	X50	Y50	Z50	X51	Y51	Z51	X52	Y52	Z52	

1394	6.965	1219.70728	99.73676	1271.05139	1334.40747	159.46901	1288.46326	1085.55811	132.98300	1297.40771	1201.70825	237.74156	1246.26733	1505.71118	132.12070	1256.93811	1636.40698	169.21411	1173.51477	1632.65942	99.12282	1212.41553	1610.95361	147.31549	1329.87439	1558.40247	213.48950	1411.04163	1604.34985	207.07562	1426.59009	895.80933	68.40861	1259.75330	776.07129	100.04956	1183.71265	785.36945	28.77463	1212.82910	818.97473	83.26881	1346.73706	806.52795	135.68741	1428.66028	861.91583	137.03535	1416.29822	1315.99426	315.86972	803.16785	1281.43811	126.55048	825.40112	1362.57288	228.09399	865.91797	1077.50818	292.34424	799.45270	1166.34717	118.04237	820.40094	1055.88208	210.58900	856.40344	1382.71436	340.36179	539.17035	1383.25244	359.38342	426.12131	1399.08167	318.51190	390.69482	1395.69226	234.23425	524.46295	1383.88110	254.52434	407.38327	1383.68323	338.32166	313.93259	1253.73792	316.76443	313.47955	1408.57739	220.35526	284.51080	1401.04785	99.34465	275.70471	1412.07959	210.60347	360.12085	1408.22754	95.74154	358.34528	1405.72205	-73.77170	315.39725	1323.70605	-64.25060	288.62677	1360.12805	-103.39130	374.86691	1413.95239	-144.45378	211.32628	1371.71521	-123.22449	166.01675	1011.57849	322.92453	544.16071	1011.14978	349.90610	406.76062	1022.09058	205.00652	526.03082	1024.98718	235.27582	390.65567	1000.36420	303.84833	330.99042	1131.52588	314.12430	306.22421	983.53137	203.38329	300.90396	1008.24774	198.16005	387.13651	1016.23090	78.74054	368.47504	1011.50391	-91.62383	317.94489	1088.67529	-66.09849	275.92932	1062.25061	-100.24495	366.58395	1008.81854	-174.40268	206.04536	1048.34351	-148.51555	154.22818	
1395	6.970	1219.66602	99.61777	1271.04395	1334.38184	159.34528	1288.43433	1085.53430	132.86696	1297.36511	1201.74475	237.63326	1246.27490	1505.64600	131.99658	1257.02771	1636.35388	169.07080	1173.60840	1632.57068	98.93342	1212.52991	1610.86804	147.12483	1329.94592	1557.87073	213.38461	1411.16577	1604.16809	206.84856	1426.72461	895.69537	68.34049	1259.78870	776.04846	99.98770	1183.64661	785.27179	28.69610	1212.79871	818.89423	83.17059	1346.70264	806.45856	135.60384	1428.65808	861.87732	136.94267	1416.24585	1315.91211	315.84302	803.16046	1281.42041	126.50232	825.42316	1362.56628	228.00467	865.95172	1077.59155	292.41476	799.51147	1166.28076	118.02451	820.45258	1055.94141	210.52589	856.45343	1382.73474	340.29956	539.18921	1383.25928	359.36404	426.11276	1399.05847	318.49100	390.74707	1395.67627	234.22681	524.49579	1383.86084	254.52621	407.44247	1383.65710	338.34674	314.01840	1253.73035	316.75064	313.49100	1408.57031	220.35922	284.54224	1401.05811	99.35511	275.74405	1412.08142	210.58879	360.14319	1408.21387	95.73338	358.36032	1405.68579	-73.76722	315.48022	1323.70032	-64.24717	288.63419	1360.11218	-103.38335	374.87689	1413.90967	-144.45297	211.30353	1371.59631	-123.25783	166.09485	1011.57574	322.89517	544.19275	1011.14026	349.89069	406.78177	1022.11072	204.93752	526.03192	1024.98328	235.28259	390.64905	1000.37964	303.84366	331.02261	1131.49133	314.12289	306.22769	983.47772	203.34326	300.74463	1008.26514	197.55823	387.13055	1016.20728	78.69678	368.46567	1011.49396	-91.62451	317.92917	1088.60193	-66.09926	275.99609	1062.15393	-100.25430	366.64734	1008.85492	-174.41006	205.97676	1048.37268	-148.52335	154.15967	
1396	6.975	1219.61328	99.49311	1271.02600	1334.31165	159.16133	1288.48547	1085.47998	132.74524	1297.32861	1201.62451	237.46635	1246.28564	1505.57568	131.85518	1257.08582	1636.08350	168.87933	1173.91394	1632.48462	98.75614	1212.68140	1610.71118	146.92732	1330.08545	1557.74634	213.17932	1411.23145	1603.95325	206.68593	1426.87708	895.67725	68.24702	1259.70398	776.00391	99.95413	1183.59314	785.20837	28.65855	1212.78857	818.78931	83.11195	1346.69983	806.28992	135.65382	1428.74927	861.80029	136.81134	1416.29590	1315.95447	315.79266	803.25500	1281.35425	126.44300	825.51770	1362.53601	227.94212	866.02124	1077.49951	292.22989	799.53314	1166.29028	117.95995	820.45331	1055.87354	210.49593	856.39490	1382.69019	340.31787	539.25372	1383.26746	360.18970	425.83453	1399.03772	318.45407	390.77240	1395.64026	234.15642	524.46002	1383.84619	254.48923	407.44022	1383.62463	338.32794	314.08847	1253.74084	316.75818	313.48737	1408.63599	220.95110	284.74026	1401.04895	99.34496	275.77902	1412.08508	210.57088	360.14664	1408.18530	95.70355	358.38055	1405.61523	-73.78065	315.58398	1322.84766	-64.31755	288.61389	1360.01758	-103.39954	374.91406	1413.88696	-144.45827	211.42296	1371.69824	-123.17774	166.33011	1011.54883	322.90240	544.19617	1011.12885	349.89594	406.78027	1022.07977	204.97340	526.03247	1024.97705	235.26234	390.65607	1000.37964	303.83411	330.98621	1131.54700	314.14795	306.23892	983.49835	203.29555	301.03262	1008.23724	198.15691	387.14120	1016.21979	78.68461	368.50214	1011.50262	-91.60700	317.90796	1088.53833	-66.09622	276.15543	1062.11047	-100.24495	366.65051	1008.82001	-174.42142	206.03474	1048.37622	-148.53058	154.12546	
1397	6.980	1219.57068	99.37517	1270.99475	1334.23181	159.02199	1288.51233	1085.43848	132.61134	1297.29163	1201.56970	237.37448	1246.31897	1505.49707	131.71027	1257.17285	1636.02148	168.73827	1174.05188	1632.42297	98.58771	1212.81616	1610.64990	146.65016	1330.18347	1557.64429	212.97768	1411.27295	1603.80310	206.48671	1427.01672	895.59985	68.18076	1259.71594	775.96948	99.90955	1183.55493	785.10767	28.59636	1212.77527	818.68677	82.99593	1346.67102	806.21527	135.55014	1428.70471	861.71509	136.69621	1416.27307	1315.90149	315.68796	803.21362	1281.33850	126.38218	825.52087	1362.52600	227.86710	866.05963	1077.50903	292.27042	799.47327	1166.22375	117.91151	820.45709	1055.88696	210.44962	856.37909	1382.70459	340.30978	539.29645	1383.28076	359.32788	426.13266	1399.03601	318.44336	390.78174	1395.64966	234.15065	524.48444	1383.79163	254.46594	407.46655	1383.58960	338.33978	314.18042	1253.74048	316.74850	313.51221	1408.50525	220.33580	284.57935	1401.02588	99.34618	275.82193	1412.05945	210.55681	360.14383	1408.17126	95.69310	358.41943	1405.56067	-73.80112	315.70148	1322.77979	-64.37326	288.66000	1359.95459	-103.40964	374.96378	1413.82849	-144.45247	211.50351	1371.80933	-123.10766	166.63318	1011.57996	322.84750	544.16858	1011.12732	349.88266	406.79532	1022.08557	204.92470	526.01495	1024.94629	235.26915	390.66513	1000.37665	303.82556	330.97025	1131.52344	314.09256	306.22598	983.53369	203.36276	300.97491	1008.27325	198.10980	387.14130	1016.17719	78.69478	368.51105	1011.49292	-91.61929	317.88354	1088.48462	-66.08203	276.17938	1062.00952	-100.23289	366.74301	1008.86047	-174.40945	205.96298	1048.38232	-148.53566	154.16165	
